<?xml version="1.0" encoding="utf-8"?>
<!-- Generator: Adobe Illustrator 27.3.1, SVG Export Plug-In . SVG Version: 6.00 Build 0)  -->
<svg version="1.1" id="Layer_1" xmlns="http://www.w3.org/2000/svg" xmlns:xlink="http://www.w3.org/1999/xlink" x="0px" y="0px"
	 viewBox="0 0 1150 296" style="enable-background:new 0 0 1150 296;" xml:space="preserve">
<style type="text/css">
	.st0{fill:#FFFFFF;}
</style>
<g>
	<g>
		<path class="st0" d="M356.7,247l61.4-88.7h-55.2v-17.5h84v8.7l-59.9,88.7h58.1v17.5h-88.5L356.7,247L356.7,247z"/>
		<path class="st0" d="M460.7,147.5c0-1.7,0.3-3.2,0.9-4.6s1.5-2.6,2.6-3.6s2.4-1.8,3.8-2.4s3-0.8,4.6-0.8s3.1,0.3,4.5,0.9
			c1.4,0.6,2.6,1.4,3.7,2.4c1.1,1,1.9,2.2,2.5,3.6s0.9,2.9,0.9,4.6c0,1.6-0.3,3.1-0.9,4.6s-1.4,2.6-2.4,3.6c-1,1-2.2,1.8-3.6,2.4
			c-1.4,0.6-3,0.9-4.6,0.9c-1.6,0-3.2-0.3-4.6-0.9c-1.5-0.6-2.8-1.4-3.9-2.4s-2-2.2-2.6-3.6C461,150.6,460.7,149.1,460.7,147.5z
			 M462.5,171.8h20.1v83.9h-20.1V171.8z"/>
		<path class="st0" d="M553.5,245.4c-3.2,4.2-7,7.3-11.5,9.1c-4.5,1.8-9.3,2.8-14.6,2.8c-3.9,0-7.6-0.5-11-1.5s-6.4-2.5-9-4.6
			c-2.5-2-4.5-4.6-6-7.6c-1.5-3.1-2.2-6.7-2.2-10.8c0-3.9,0.6-7.2,1.9-10.1s3-5.3,5.2-7.3c2.2-2,4.7-3.6,7.7-4.9
			c2.9-1.3,6-2.2,9.3-2.9c3.3-0.7,6.6-1.2,10.1-1.4s6.8-0.4,10-0.4h9.9v-1.3c0-3-0.2-5.7-0.7-8.1s-1.3-4.5-2.5-6.2
			c-1.2-1.7-2.9-3-5-3.9s-4.9-1.4-8.3-1.4c-4.1,0-7.8,1-11.3,3.1s-5.9,5-7.4,8.9l-15.6-6.8c1.4-3.7,3.4-6.9,6-9.4
			c2.6-2.6,5.5-4.7,8.7-6.3s6.7-2.8,10.4-3.5c3.7-0.7,7.5-1.1,11.2-1.1c5,0,9.5,0.6,13.7,1.8c4.2,1.2,7.8,3.1,10.9,5.6
			s5.4,5.7,7.1,9.6s2.5,8.5,2.5,13.9v54.9h-19.8L553.5,245.4L553.5,245.4z M543.2,218.1c-2.3,0-4.8,0.1-7.7,0.4
			c-2.8,0.2-5.4,0.8-7.8,1.8c-2.4,0.9-4.5,2.3-6.1,4.2s-2.4,4.3-2.4,7.5c0,2,0.3,3.8,1,5.1s1.6,2.5,2.9,3.4s2.7,1.5,4.3,1.9
			c1.6,0.4,3.4,0.6,5.3,0.6c2.6,0,5.1-0.3,7.5-1c2.5-0.7,4.7-1.7,6.6-3.1s3.5-3.1,4.8-5.2c1.2-2.1,1.8-4.6,1.8-7.4v-8.2L543.2,218.1
			L543.2,218.1z"/>
		<path class="st0" d="M639.4,221.1c1.2,3.3,2.8,6.2,4.8,8.6s4.3,4.5,6.9,6.2c2.6,1.7,5.5,2.9,8.6,3.8s6.5,1.2,10,1.2
			c2.7,0,5.3-0.4,7.9-1.1c2.6-0.7,4.9-1.8,6.9-3.2s3.7-3.3,5-5.5c1.3-2.2,1.9-4.8,1.9-7.8c0-3.2-0.7-5.8-2.2-7.8
			c-1.5-2-3.4-3.6-5.8-4.8s-5.2-2.2-8.4-2.9c-3.2-0.7-6.5-1.4-10-2c-4.5-0.8-8.9-1.7-13.3-2.9s-8.5-2.8-12-5.1s-6.5-5.5-8.7-9.5
			s-3.3-9.3-3.3-15.9c0-5.5,1.1-10.3,3.4-14.5c2.3-4.2,5.3-7.6,9-10.4c3.7-2.8,7.9-4.9,12.7-6.3s9.6-2.1,14.6-2.1
			c4.6,0,9,0.5,13.3,1.4s8.2,2.5,11.8,4.6c3.6,2.1,6.9,4.7,9.7,7.9s5.2,7,7,11.5l-16.3,7.4c-2.5-5.1-5.9-9.1-10.3-11.9
			c-4.4-2.9-9.5-4.3-15.4-4.3c-2.3,0-4.6,0.3-6.9,0.8c-2.2,0.5-4.2,1.4-6,2.6s-3.2,2.8-4.2,4.7s-1.6,4.3-1.6,7.1
			c0,3.1,0.7,5.6,2,7.5c1.4,1.9,3.2,3.5,5.5,4.7c2.3,1.2,5,2.2,8.1,2.9c3.1,0.7,6.4,1.4,9.9,2c3,0.5,6.1,1.1,9.1,1.7s6,1.4,8.9,2.5
			c2.9,1,5.6,2.3,8.1,3.8s4.7,3.4,6.6,5.7s3.4,5.1,4.4,8.4s1.6,7.1,1.6,11.6c0,5.8-1.2,10.9-3.7,15.4c-2.5,4.4-5.7,8.2-9.8,11.2
			s-8.6,5.3-13.8,6.8c-5.2,1.5-10.4,2.3-15.7,2.3c-5.2,0-10.3-0.5-15.3-1.5c-5-1-9.6-2.6-13.9-4.9s-8-5.2-11.3-8.9
			c-3.2-3.7-5.6-8.2-7.2-13.5L639.4,221.1z"/>
		<path class="st0" d="M804.7,237.4c-1.7,3.7-3.9,6.8-6.6,9.4c-2.7,2.5-5.7,4.6-9,6.1s-6.8,2.7-10.5,3.3c-3.7,0.7-7.5,1-11.4,1
			c-6.6,0-12.6-1.1-18-3.2c-5.3-2.1-9.9-5.1-13.6-8.9c-3.7-3.8-6.6-8.5-8.6-13.9s-3-11.4-3-17.9c0-6.2,1-11.9,3.1-17.2
			s4.9-9.9,8.6-13.8s8.2-7,13.3-9.2c5.2-2.2,10.9-3.3,17.3-3.3c13.6,0,23.7,4,30.4,12s10,20.1,10,36.3h-62.2c0,3.6,0.5,6.8,1.5,9.9
			c1,3,2.5,5.6,4.5,7.8s4.5,3.9,7.4,5.1c2.9,1.2,6.3,1.8,10.1,1.8c4.6,0,8.7-1,12.3-2.9s6.5-5.1,8.7-9.3L804.7,237.4z M786.7,204.9
			c-0.3-6.4-2.3-11.4-5.8-15c-3.6-3.6-8.4-5.4-14.3-5.4c-3.1,0-6,0.5-8.5,1.6c-2.5,1.1-4.7,2.5-6.5,4.3s-3.3,4-4.4,6.5
			c-1.2,2.5-1.9,5.2-2.3,8.1L786.7,204.9L786.7,204.9z"/>
		<path class="st0" d="M871.4,245.4c-3.2,4.2-7,7.3-11.5,9.1c-4.5,1.8-9.3,2.8-14.6,2.8c-3.9,0-7.6-0.5-11-1.5c-3.4-1-6.4-2.5-9-4.6
			c-2.5-2-4.5-4.6-6-7.6c-1.5-3.1-2.2-6.7-2.2-10.8c0-3.9,0.6-7.2,1.9-10.1c1.3-2.9,3-5.3,5.2-7.3c2.2-2,4.7-3.6,7.7-4.9
			c2.9-1.3,6-2.2,9.3-2.9c3.3-0.7,6.6-1.2,10.1-1.4s6.8-0.4,10-0.4h9.9v-1.3c0-3-0.2-5.7-0.7-8.1s-1.3-4.5-2.5-6.2
			c-1.2-1.7-2.9-3-5-3.9s-4.9-1.4-8.3-1.4c-4.1,0-7.8,1-11.3,3.1s-5.9,5-7.4,8.9l-15.6-6.8c1.4-3.7,3.4-6.9,6-9.4
			c2.6-2.6,5.5-4.7,8.7-6.3c3.2-1.6,6.7-2.8,10.4-3.5c3.7-0.7,7.5-1.1,11.2-1.1c5,0,9.5,0.6,13.7,1.8c4.2,1.2,7.8,3.1,10.9,5.6
			s5.4,5.7,7.1,9.6s2.5,8.5,2.5,13.9v54.9h-19.8L871.4,245.4L871.4,245.4z M861.1,218.1c-2.3,0-4.8,0.1-7.7,0.4
			c-2.8,0.2-5.4,0.8-7.8,1.8c-2.4,0.9-4.5,2.3-6.1,4.2s-2.4,4.3-2.4,7.5c0,2,0.3,3.8,1,5.1s1.6,2.5,2.9,3.4s2.7,1.5,4.3,1.9
			c1.6,0.4,3.4,0.6,5.3,0.6c2.6,0,5.1-0.3,7.5-1c2.5-0.7,4.7-1.7,6.6-3.1s3.5-3.1,4.8-5.2c1.2-2.1,1.8-4.6,1.8-7.4v-8.2L861.1,218.1
			L861.1,218.1z"/>
		<path class="st0" d="M912.4,171.6h20.1v15.8c2.8-5.8,6.5-10.1,11.1-12.9c4.6-2.8,10.1-4.2,16.5-4.2V189c-4.1,0-7.8,0.4-11.2,1.1
			c-3.4,0.7-6.3,2-8.7,3.8s-4.3,4.2-5.7,7.2s-2,6.7-2,11.2v43.4h-20.1V171.6z"/>
		<path class="st0" d="M1049.1,231.9c-1.4,4.4-3.4,8.2-6,11.4c-2.6,3.2-5.5,5.8-8.9,7.9c-3.4,2.1-7.1,3.6-11.2,4.6
			c-4.1,1-8.3,1.5-12.7,1.5c-6.6,0-12.6-1.1-17.9-3.2c-5.3-2.1-9.8-5.1-13.4-9s-6.5-8.5-8.4-13.9s-2.9-11.3-2.9-17.8
			c0-6.2,1.1-12,3.2-17.3s5.1-9.9,8.9-13.8c3.8-3.9,8.4-6.9,13.6-9.1s11-3.3,17.4-3.3c4.2,0,8.3,0.5,12.2,1.4
			c3.9,0.9,7.5,2.3,10.8,4.2c3.3,1.9,6.2,4.4,8.8,7.3c2.5,3,4.6,6.5,6.2,10.7l-16.2,7.1c-1.7-4.8-4.4-8.4-8.3-11
			c-3.8-2.6-8.3-3.9-13.4-3.9c-4.1,0-7.5,0.8-10.4,2.4c-2.8,1.6-5.2,3.8-7,6.5s-3.1,5.8-3.9,9.2s-1.2,6.9-1.2,10.6
			c0,3.7,0.4,7.2,1.3,10.6c0.8,3.4,2.2,6.3,4,8.8s4.2,4.5,7.1,6s6.4,2.2,10.4,2.2c5.8,0,10.6-1.5,14.4-4.5c3.8-3,6.6-7.1,8.3-12.4
			L1049.1,231.9z"/>
		<path class="st0" d="M1065,133.6h20.1V185c1.4-2.6,3.1-4.9,5.1-6.8c2-1.9,4.2-3.5,6.7-4.7c2.4-1.2,5.1-2.1,7.8-2.8
			c2.8-0.6,5.6-0.9,8.5-0.9c5,0,9.4,0.8,13.2,2.5c3.8,1.7,6.9,4,9.4,6.9c2.5,3,4.4,6.5,5.7,10.5c1.3,4.1,1.9,8.5,1.9,13.3v52.6
			h-20.2v-50.6c0-6.1-1.5-10.7-4.6-13.9c-3.1-3.2-7.5-4.8-13.4-4.8c-6.5,0-11.4,1.8-14.9,5.4c-3.4,3.6-5.1,8.5-5.1,14.5v49.4H1065
			L1065,133.6L1065,133.6z"/>
	</g>
	<g>
		<g>
			<path class="st0" d="M361.5,104.4l37-53.4h-33.2V40.5h50.6v5.2l-36.1,53.4h35v10.5h-53.3L361.5,104.4L361.5,104.4z"/>
			<path class="st0" d="M419.2,84.5c0-4,0.8-7.6,2.3-10.8c1.5-3.3,3.6-6.1,6.2-8.4c2.6-2.3,5.6-4.1,9-5.4s7-1.9,10.9-1.9
				c3.8,0,7.4,0.6,10.7,1.9c3.3,1.3,6.2,3.1,8.6,5.4s4.4,5.1,5.7,8.3c1.4,3.2,2.1,6.8,2.1,10.7c0,4-0.7,7.6-2.2,10.8
				c-1.5,3.2-3.4,6-5.9,8.3c-2.5,2.3-5.4,4.1-8.8,5.3c-3.4,1.3-7,1.9-10.8,1.9c-3.8,0-7.5-0.6-10.9-1.9c-3.4-1.3-6.3-3.1-8.8-5.4
				c-2.5-2.3-4.5-5.1-5.9-8.2C419.9,91.9,419.2,88.3,419.2,84.5z M447.3,101.3c2.5,0,4.7-0.5,6.5-1.4s3.3-2.2,4.5-3.8
				c1.2-1.6,2-3.4,2.6-5.4c0.5-2.1,0.8-4.2,0.8-6.4c0-2.3-0.3-4.5-0.9-6.6c-0.6-2.1-1.5-3.9-2.7-5.4c-1.2-1.6-2.7-2.8-4.6-3.7
				s-4-1.3-6.5-1.3c-2.5,0-4.7,0.5-6.5,1.4s-3.3,2.2-4.4,3.8c-1.1,1.6-2,3.4-2.5,5.5c-0.5,2.1-0.8,4.3-0.8,6.6
				c0,2.2,0.3,4.4,0.9,6.4s1.5,3.8,2.7,5.3c1.2,1.5,2.7,2.7,4.5,3.6C442.7,100.9,444.9,101.3,447.3,101.3z"/>
			<path class="st0" d="M483.5,36.1h12.1v31c0.8-1.6,1.8-2.9,3-4.1c1.2-1.2,2.5-2.1,4-2.8c1.5-0.7,3-1.3,4.7-1.7s3.4-0.5,5.1-0.5
				c3,0,5.7,0.5,7.9,1.5s4.2,2.4,5.7,4.2c1.5,1.8,2.7,3.9,3.4,6.3c0.8,2.4,1.1,5.1,1.1,8v31.7h-12.2V79.2c0-3.7-0.9-6.4-2.8-8.4
				s-4.5-2.9-8.1-2.9c-3.9,0-6.9,1.1-9,3.3s-3.1,5.1-3.1,8.7v29.7h-12.1L483.5,36.1L483.5,36.1z"/>
			<path class="st0" d="M538.6,84.5c0-4,0.8-7.6,2.3-10.8c1.5-3.3,3.6-6.1,6.2-8.4c2.6-2.3,5.6-4.1,9-5.4s7-1.9,10.8-1.9
				c3.8,0,7.4,0.6,10.7,1.9c3.3,1.3,6.2,3.1,8.6,5.4s4.4,5.1,5.7,8.3c1.4,3.2,2.1,6.8,2.1,10.7c0,4-0.7,7.6-2.2,10.8
				c-1.5,3.2-3.4,6-5.9,8.3c-2.5,2.3-5.4,4.1-8.8,5.3c-3.4,1.3-7,1.9-10.8,1.9c-3.8,0-7.5-0.6-10.8-1.9c-3.4-1.3-6.3-3.1-8.8-5.4
				c-2.5-2.3-4.5-5.1-5.9-8.2C539.3,91.9,538.6,88.3,538.6,84.5z M566.7,101.3c2.5,0,4.7-0.5,6.5-1.4s3.3-2.2,4.5-3.8
				c1.2-1.6,2-3.4,2.6-5.4c0.5-2.1,0.8-4.2,0.8-6.4c0-2.3-0.3-4.5-0.9-6.6c-0.6-2.1-1.5-3.9-2.7-5.4c-1.2-1.6-2.7-2.8-4.6-3.7
				s-4-1.3-6.5-1.3c-2.5,0-4.7,0.5-6.5,1.4s-3.3,2.2-4.4,3.8c-1.1,1.6-2,3.4-2.5,5.5c-0.5,2.1-0.8,4.3-0.8,6.6
				c0,2.2,0.3,4.4,0.9,6.4s1.5,3.8,2.7,5.3c1.2,1.5,2.7,2.7,4.5,3.6C562.1,100.9,564.2,101.3,566.7,101.3z"/>
		</g>
	</g>
</g>
<path class="st0" d="M283.8,219.9L241,177.1c28.4-61.5,1.6-134.4-59.8-162.8c-16-7.4-33.4-11.2-51.1-11.3h-0.6
	C61.8,3,6.8,58,6.9,125.8c0,49.3,29.6,93.8,75,113c15.1,6.4,31.3,9.6,47.6,9.6c1.3,0,2.6,0,3.8-0.1c5.1,5.9,14,6.6,19.9,1.6
	c5.9-5.1,6.6-14,1.6-19.9c-5.1-5.9-14-6.6-19.9-1.6c-1,0.9-1.9,1.9-2.6,3c-0.9,0-1.8,0-2.6,0h-0.1c-58.4-0.1-105.7-47.5-105.6-106
	C23.9,83,49.4,44.6,88.6,28.2c13.1-5.5,27.2-8.3,41.4-8.2c28.2,0.1,54.7,11.2,74.5,31.2s30.8,46.5,30.7,74.7
	c0,17.1-4.2,33.9-12.1,49c-1.7,3.3-1.1,7.3,1.5,9.9l47.1,47.1c9.7,10.2,9.4,26.3-0.8,36c-9.9,9.4-25.4,9.4-35.2,0l-89.4-89.4
	c-2-2-4.8-2.9-7.5-2.4s-5.5,0.8-8.3,0.8c-13.8,0.3-26.9-4.9-36.7-14.3c-9.8-9.5-15.3-22.4-15.4-36.2c-0.4-28.3,22.3-51.5,50.6-51.8
	c0.4,0,0.9,0,1.3,0c28.1,0.4,50.8,23.6,50.5,51.7c-0.1,5.7-1.1,11.4-3,16.8c-7.7,1.5-12.6,9-11.1,16.6c1.5,7.7,9,12.6,16.6,11.1
	c7.7-1.5,12.6-9,11.1-16.6c-0.3-1.3-0.7-2.5-1.3-3.7c3-7.7,4.5-15.8,4.6-24c0.3-37.5-29.8-68.3-67.2-68.8
	C92.9,57.1,62,87.1,61.4,124.7c0,0.6,0,1.2,0,1.9C61.6,145,69,162.1,82,174.8c12.8,12.4,29.6,19.2,47.5,19.2c0.4,0,0.9,0,1.3,0
	c2.2,0,4.4-0.2,6.6-0.4l86.5,86.5c16.2,16.9,43.1,17.4,60,1.2c16.9-16.2,17.4-43.1,1.2-60C284.6,220.7,284.2,220.3,283.8,219.9z"/>
</svg>
